M48
;Layer_Color=9474304
;FILE_FORMAT=2:5
INCH,LZ
;TYPE=PLATED
T1F00S00C0.01200
T3F00S00C0.02559
T4F00S00C0.03543
;TYPE=NON_PLATED
T5F00S00C0.03937
%
T01
X02676Y01405
X0270768Y01619
X02789
X02851Y0166
X0278Y0189
X02824Y021445
X02799Y023895
X02891Y0239
X02628Y02303
X0261369Y0221531
X02502Y02291
X02481Y0229153
X02354Y0221699
X0231Y02249
X02298Y0231515
X02218Y02318
X02189Y02339
X02249Y023745
X022155Y02435
X0205925Y0239325
X02081Y02334
X02151Y02275
X01858Y02253
X018185Y0218969
X0194Y01997
X01897Y01929
Y01873
X020176Y019194
X02055Y01847
X02151Y01823
X02196Y01873
X02126Y01902
X02085Y01984
X02043Y02021
X02113Y01753
X02073Y01615
X0188142
X017625Y016675
X01795Y01771
X0230347Y01753
X02418Y0174526
X02503Y0175726
Y018355
X02467Y01845
X02373Y0199351
X02473Y025325
X02275Y0258352
X022325Y0266
X0222Y02719
X02128Y0272524
Y02668
Y0266
X02074
X01975Y0268
X0199362Y0270804
X01986Y026255
X01955Y02634
X01849Y0265
X01837Y0270203
X01825Y0276
X01887Y03086
X01943Y03058
X0202362Y0297412
X021Y02963
X02219Y02928
X02271Y02963
X02354Y02928
X024205Y02918
X02612Y02934
X026215Y03009
X02611Y03039
X02609Y0304563
X02549Y0305282
X02548Y03085
X02525Y03115
X02651Y03112
X02728Y0302
X02703Y02938
X0271711Y028425
X02602Y02767
X0253596Y02749
X02329Y0279
X0234982Y03086
X02375Y03114
X022715Y03107
X02245Y03122
X0285Y03085
X0288Y0303
X0272Y03125
X02595Y0315
Y0321
X0256815Y03258
X02535Y03251
X02475
X02479Y03298
X02403Y032635
X02407Y033435
X02556Y033325
X023588Y03201
X02258Y03175
X02172Y03242
X02075Y03254
X02128Y03327
X01973Y031315
T03
X0185622Y0149858
X0208378
T04
X0157Y017
Y018
Y019
Y02
Y021
Y022
Y023
Y024
Y025
Y026
Y027
Y028
Y029
Y03
Y031
X0168
Y03
Y029
Y028
Y027
Y026
Y025
Y024
Y023
Y022
Y021
Y02
Y019
Y018
Y017
Y032
Y033
Y034
X0157
Y033
Y032
T05
X02Y03205
X0231496
M30
