G04*
G04 #@! TF.GenerationSoftware,Altium Limited,Altium Designer,20.0.13 (296)*
G04*
G04 Layer_Color=16711935*
%FSLAX24Y24*%
%MOIN*%
G70*
G01*
G75*
%ADD87C,0.0020*%
%ADD88C,0.0039*%
D87*
X16152Y14353D02*
X16348D01*
X16152Y14747D02*
X16348D01*
X16152Y14353D02*
Y14747D01*
X16348Y14353D02*
Y14747D01*
X16190Y14550D02*
X16310D01*
X16250Y14490D02*
Y14610D01*
X20300Y26690D02*
Y26810D01*
X20240Y26750D02*
X20360D01*
X20202Y26553D02*
Y26947D01*
X20398Y26553D02*
Y26947D01*
X20202D02*
X20398D01*
X20202Y26553D02*
X20398D01*
X27840Y17950D02*
X27960D01*
X27900Y17890D02*
Y18010D01*
X27703Y18048D02*
X28097D01*
X27703Y17852D02*
X28097D01*
X27703D02*
Y18048D01*
X28097Y17852D02*
Y18048D01*
X27790Y18500D02*
X27910D01*
X27850Y18440D02*
Y18560D01*
X27653Y18598D02*
X28047D01*
X27653Y18402D02*
X28047D01*
X27653D02*
Y18598D01*
X28047Y18402D02*
Y18598D01*
X27840Y17450D02*
X27960D01*
X27900Y17390D02*
Y17510D01*
X27703Y17548D02*
X28097D01*
X27703Y17352D02*
X28097D01*
X27703D02*
Y17548D01*
X28097Y17352D02*
Y17548D01*
X27750Y30340D02*
Y30460D01*
X27690Y30400D02*
X27810D01*
X27848Y30203D02*
Y30597D01*
X27652Y30203D02*
Y30597D01*
X27848D01*
X27652Y30203D02*
X27848D01*
X26690Y29050D02*
X26810D01*
X26750Y28990D02*
Y29110D01*
X26553Y29148D02*
X26947D01*
X26553Y28952D02*
X26947D01*
X26553D02*
Y29148D01*
X26947Y28952D02*
Y29148D01*
X27650Y29390D02*
Y29510D01*
X27590Y29450D02*
X27710D01*
X27748Y29253D02*
Y29647D01*
X27552Y29253D02*
Y29647D01*
X27748D01*
X27552Y29253D02*
X27748D01*
X26677Y23592D02*
Y23712D01*
X26617Y23652D02*
X26737D01*
X26775Y23455D02*
Y23848D01*
X26578Y23455D02*
Y23848D01*
X26775D01*
X26578Y23455D02*
X26775D01*
X26077Y23592D02*
Y23712D01*
X26017Y23652D02*
X26137D01*
X26175Y23455D02*
Y23848D01*
X25978Y23455D02*
Y23848D01*
X26175D01*
X25978Y23455D02*
X26175D01*
X26127Y24492D02*
Y24612D01*
X26067Y24552D02*
X26187D01*
X26225Y24355D02*
Y24748D01*
X26028Y24355D02*
Y24748D01*
X26225D01*
X26028Y24355D02*
X26225D01*
X28752Y14153D02*
X28948D01*
X28752Y14547D02*
X28948D01*
X28752Y14153D02*
Y14547D01*
X28948Y14153D02*
Y14547D01*
X28790Y14350D02*
X28910D01*
X28850Y14290D02*
Y14410D01*
X26650Y24390D02*
Y24510D01*
X26590Y24450D02*
X26710D01*
X26552Y24253D02*
Y24647D01*
X26748Y24253D02*
Y24647D01*
X26552Y24253D02*
X26748D01*
X26552Y24647D02*
X26748D01*
X28981Y17366D02*
X30380D01*
Y19334D01*
X28981D02*
X30380D01*
X28981Y17366D02*
Y19334D01*
Y23266D02*
X30380D01*
Y25234D01*
X28981D02*
X30380D01*
X28981Y23266D02*
Y25234D01*
Y28716D02*
X30380D01*
Y30684D01*
X28981D02*
X30380D01*
X28981Y28716D02*
Y30684D01*
D88*
X26151Y17461D02*
X26860D01*
X26151Y18682D02*
X26860D01*
Y17461D02*
Y18682D01*
X26151Y17461D02*
Y18682D01*
M02*
