G04*
G04 #@! TF.GenerationSoftware,Altium Limited,Altium Designer,20.0.13 (296)*
G04*
G04 Layer_Color=32896*
%FSLAX24Y24*%
%MOIN*%
G70*
G01*
G75*
%ADD13C,0.0010*%
%ADD14C,0.0060*%
%ADD17C,0.0050*%
%ADD84C,0.0040*%
G36*
X20390Y26685D02*
Y26720D01*
X20210D01*
Y26685D01*
X20390D01*
D02*
G37*
G36*
X20210Y26815D02*
Y26780D01*
X20390D01*
Y26815D01*
X20210D01*
D02*
G37*
D13*
Y26780D02*
Y26815D01*
X20390Y26780D02*
Y26815D01*
X20210Y26780D02*
X20390D01*
X20210Y26815D02*
X20390D01*
X20210Y26685D02*
X20390D01*
X20210Y26720D02*
X20390D01*
X20210Y26685D02*
Y26720D01*
X20390Y26685D02*
Y26720D01*
D14*
X21927Y26443D02*
Y27092D01*
X21573Y26443D02*
Y27092D01*
Y26443D02*
X21927D01*
X21573Y27092D02*
X21927D01*
X22777Y26443D02*
Y27092D01*
X22423Y26443D02*
Y27092D01*
Y26443D02*
X22777D01*
X22423Y27092D02*
X22777D01*
X21177Y26443D02*
Y27092D01*
X20823Y26443D02*
Y27092D01*
Y26443D02*
X21177D01*
X20823Y27092D02*
X21177D01*
X23527Y26443D02*
Y27092D01*
X23173Y26443D02*
Y27092D01*
Y26443D02*
X23527D01*
X23173Y27092D02*
X23527D01*
X25199Y27350D02*
Y33736D01*
X23565D02*
X25199D01*
X18661Y27350D02*
X25199D01*
X18661D02*
Y33416D01*
X22565D01*
X22555D02*
X23565Y33736D01*
X19275Y28750D02*
Y28450D01*
Y28650D02*
X19425Y28550D01*
X19275Y28650D02*
X19425Y28750D01*
X19775Y28500D02*
X19825Y28450D01*
X19925D01*
X19975Y28500D01*
Y28550D01*
X19925Y28600D01*
X19975Y28650D01*
Y28700D01*
X19925Y28750D01*
X19825D01*
X19775Y28700D01*
Y28650D01*
X19825Y28600D01*
X19775Y28550D01*
Y28500D01*
X19825Y28600D02*
X19925D01*
X20215Y28450D02*
X20415D01*
Y28500D01*
X20215Y28700D01*
Y28750D01*
X20835Y28450D02*
X20735Y28500D01*
X20635Y28600D01*
Y28700D01*
X20685Y28750D01*
X20785D01*
X20835Y28700D01*
Y28650D01*
X20785Y28600D01*
X20635D01*
X21255Y28450D02*
X21055D01*
Y28600D01*
X21155Y28550D01*
X21205D01*
X21255Y28600D01*
Y28700D01*
X21205Y28750D01*
X21105D01*
X21055Y28700D01*
X21625Y28750D02*
Y28450D01*
X21475Y28600D01*
X21675D01*
X21945Y28500D02*
X21995Y28450D01*
X22095D01*
X22145Y28500D01*
Y28550D01*
X22095Y28600D01*
X22045D01*
X22095D01*
X22145Y28650D01*
Y28700D01*
X22095Y28750D01*
X21995D01*
X21945Y28700D01*
X22565Y28750D02*
X22365D01*
X22565Y28550D01*
Y28500D01*
X22515Y28450D01*
X22415D01*
X22365Y28500D01*
X22795Y28750D02*
X22895D01*
X22845D01*
Y28450D01*
X22795Y28500D01*
D17*
X25340Y34220D02*
X25207D01*
X25273D01*
Y34020D01*
X25007Y34220D02*
X25140D01*
Y34120D01*
X25073D01*
X25140D01*
Y34020D01*
X24940D02*
X24873D01*
X24907D01*
Y34220D01*
X24940Y34187D01*
X23510Y27370D02*
Y27570D01*
X23410D01*
X23377Y27537D01*
Y27470D01*
X23410Y27437D01*
X23510D01*
X23443D02*
X23377Y27370D01*
X23310D02*
X23243D01*
X23277D01*
Y27570D01*
X23310Y27537D01*
X23143D02*
X23110Y27570D01*
X23043D01*
X23010Y27537D01*
Y27403D01*
X23043Y27370D01*
X23110D01*
X23143Y27403D01*
Y27537D01*
X21910Y27370D02*
Y27570D01*
X21810D01*
X21777Y27537D01*
Y27470D01*
X21810Y27437D01*
X21910D01*
X21843D02*
X21777Y27370D01*
X21710Y27403D02*
X21677Y27370D01*
X21610D01*
X21577Y27403D01*
Y27537D01*
X21610Y27570D01*
X21677D01*
X21710Y27537D01*
Y27503D01*
X21677Y27470D01*
X21577D01*
X22760Y27370D02*
Y27570D01*
X22660D01*
X22627Y27537D01*
Y27470D01*
X22660Y27437D01*
X22760D01*
X22693D02*
X22627Y27370D01*
X22560Y27537D02*
X22527Y27570D01*
X22460D01*
X22427Y27537D01*
Y27503D01*
X22460Y27470D01*
X22427Y27437D01*
Y27403D01*
X22460Y27370D01*
X22527D01*
X22560Y27403D01*
Y27437D01*
X22527Y27470D01*
X22560Y27503D01*
Y27537D01*
X22527Y27470D02*
X22460D01*
X21160Y27370D02*
Y27570D01*
X21060D01*
X21027Y27537D01*
Y27470D01*
X21060Y27437D01*
X21160D01*
X21093D02*
X21027Y27370D01*
X20827Y27570D02*
X20893Y27537D01*
X20960Y27470D01*
Y27403D01*
X20927Y27370D01*
X20860D01*
X20827Y27403D01*
Y27437D01*
X20860Y27470D01*
X20960D01*
X25700Y26280D02*
Y26480D01*
X25600D01*
X25567Y26447D01*
Y26380D01*
X25600Y26347D01*
X25700D01*
X25367Y26280D02*
X25500D01*
X25367Y26413D01*
Y26447D01*
X25400Y26480D01*
X25467D01*
X25500Y26447D01*
X25700Y20580D02*
Y20780D01*
X25600D01*
X25567Y20747D01*
Y20680D01*
X25600Y20647D01*
X25700D01*
X25500Y20580D02*
X25433D01*
X25467D01*
Y20780D01*
X25500Y20747D01*
X28567Y20680D02*
X28633D01*
X28600D01*
Y20513D01*
X28633Y20480D01*
X28667D01*
X28700Y20513D01*
X28367Y20680D02*
X28433Y20647D01*
X28500Y20580D01*
Y20513D01*
X28467Y20480D01*
X28400D01*
X28367Y20513D01*
Y20547D01*
X28400Y20580D01*
X28500D01*
X27867Y20700D02*
X27933D01*
X27900D01*
Y20533D01*
X27933Y20500D01*
X27967D01*
X28000Y20533D01*
X27667Y20700D02*
X27800D01*
Y20600D01*
X27733Y20633D01*
X27700D01*
X27667Y20600D01*
Y20533D01*
X27700Y20500D01*
X27767D01*
X27800Y20533D01*
X27917Y22530D02*
X27983D01*
X27950D01*
Y22363D01*
X27983Y22330D01*
X28017D01*
X28050Y22363D01*
X27717Y22330D02*
X27850D01*
X27717Y22463D01*
Y22497D01*
X27750Y22530D01*
X27817D01*
X27850Y22497D01*
X28667Y22520D02*
X28733D01*
X28700D01*
Y22353D01*
X28733Y22320D01*
X28767D01*
X28800Y22353D01*
X28600Y22320D02*
X28533D01*
X28567D01*
Y22520D01*
X28600Y22487D01*
X20297Y27527D02*
X20330Y27560D01*
X20397D01*
X20430Y27527D01*
Y27393D01*
X20397Y27360D01*
X20330D01*
X20297Y27393D01*
X20230Y27560D02*
X20097D01*
Y27527D01*
X20230Y27393D01*
Y27360D01*
D84*
X27670Y19620D02*
G03*
X27720Y19570I50J0D01*
G01*
Y20230D02*
G03*
X27670Y20180I0J-50D01*
G01*
X28030D02*
G03*
X27980Y20230I-50J0D01*
G01*
Y19570D02*
G03*
X28030Y19620I0J50D01*
G01*
X28370Y19600D02*
G03*
X28420Y19550I50J0D01*
G01*
Y20210D02*
G03*
X28370Y20160I0J-50D01*
G01*
X28730D02*
G03*
X28680Y20210I-50J0D01*
G01*
Y19550D02*
G03*
X28730Y19600I0J50D01*
G01*
X28080Y22010D02*
G03*
X28030Y22060I-50J0D01*
G01*
Y21400D02*
G03*
X28080Y21450I0J50D01*
G01*
X27720D02*
G03*
X27770Y21400I50J0D01*
G01*
Y22060D02*
G03*
X27720Y22010I0J-50D01*
G01*
X28830Y22000D02*
G03*
X28780Y22050I-50J0D01*
G01*
Y21390D02*
G03*
X28830Y21440I0J50D01*
G01*
X28470D02*
G03*
X28520Y21390I50J0D01*
G01*
Y22050D02*
G03*
X28470Y22000I0J-50D01*
G01*
X27670Y19620D02*
Y20180D01*
X28030Y19620D02*
Y20180D01*
X28370Y19600D02*
Y20160D01*
X28730Y19600D02*
Y20160D01*
X28080Y21450D02*
Y22010D01*
X27720Y21450D02*
Y22010D01*
X28830Y21440D02*
Y22000D01*
X28470Y21440D02*
Y22000D01*
M02*
