G04*
G04 #@! TF.GenerationSoftware,Altium Limited,Altium Designer,20.0.13 (296)*
G04*
G04 Layer_Color=128*
%FSLAX24Y24*%
%MOIN*%
G70*
G01*
G75*
%ADD87C,0.0020*%
D87*
X15523Y17000D02*
X15877D01*
X15700Y16823D02*
Y17177D01*
X15523Y18000D02*
X15877D01*
X15700Y17823D02*
Y18177D01*
X15523Y19000D02*
X15877D01*
X15700Y18823D02*
Y19177D01*
X15523Y20000D02*
X15877D01*
X15700Y19823D02*
Y20177D01*
X15523Y21000D02*
X15877D01*
X15700Y20823D02*
Y21177D01*
X15523Y22000D02*
X15877D01*
X15700Y21823D02*
Y22177D01*
X15523Y23000D02*
X15877D01*
X15700Y22823D02*
Y23177D01*
X15523Y24000D02*
X15877D01*
X15700Y23823D02*
Y24177D01*
X15523Y25000D02*
X15877D01*
X15700Y24823D02*
Y25177D01*
X15523Y26000D02*
X15877D01*
X15700Y25823D02*
Y26177D01*
X15523Y27000D02*
X15877D01*
X15700Y26823D02*
Y27177D01*
X15523Y28000D02*
X15877D01*
X15700Y27823D02*
Y28177D01*
X15523Y29000D02*
X15877D01*
X15700Y28823D02*
Y29177D01*
X15523Y30000D02*
X15877D01*
X15700Y29823D02*
Y30177D01*
X15523Y31000D02*
X15877D01*
X15700Y30823D02*
Y31177D01*
X15523Y32000D02*
X15877D01*
X15700Y31823D02*
Y32177D01*
X15523Y33000D02*
X15877D01*
X15700Y32823D02*
Y33177D01*
X15523Y34000D02*
X15877D01*
X15700Y33823D02*
Y34177D01*
X16623Y17000D02*
X16977D01*
X16800Y16823D02*
Y17177D01*
X16623Y18000D02*
X16977D01*
X16800Y17823D02*
Y18177D01*
X16623Y19000D02*
X16977D01*
X16800Y18823D02*
Y19177D01*
X16623Y20000D02*
X16977D01*
X16800Y19823D02*
Y20177D01*
X16623Y21000D02*
X16977D01*
X16800Y20823D02*
Y21177D01*
X16623Y22000D02*
X16977D01*
X16800Y21823D02*
Y22177D01*
X16623Y23000D02*
X16977D01*
X16800Y22823D02*
Y23177D01*
X16623Y24000D02*
X16977D01*
X16800Y23823D02*
Y24177D01*
X16623Y25000D02*
X16977D01*
X16800Y24823D02*
Y25177D01*
X16623Y26000D02*
X16977D01*
X16800Y25823D02*
Y26177D01*
X16623Y27000D02*
X16977D01*
X16800Y26823D02*
Y27177D01*
X16623Y28000D02*
X16977D01*
X16800Y27823D02*
Y28177D01*
X16623Y29000D02*
X16977D01*
X16800Y28823D02*
Y29177D01*
X16623Y30000D02*
X16977D01*
X16800Y29823D02*
Y30177D01*
X16623Y31000D02*
X16977D01*
X16800Y30823D02*
Y31177D01*
X16623Y32000D02*
X16977D01*
X16800Y31823D02*
Y32177D01*
X16623Y33000D02*
X16977D01*
X16800Y32823D02*
Y33177D01*
X16623Y34000D02*
X16977D01*
X16800Y33823D02*
Y34177D01*
X22953Y32050D02*
X23346D01*
X23150Y31853D02*
Y32247D01*
X19803Y32050D02*
X20197D01*
X20000Y31853D02*
Y32247D01*
X18434Y14986D02*
X18690D01*
X18562Y14858D02*
Y15114D01*
X20710Y14986D02*
X20966D01*
X20838Y14858D02*
Y15114D01*
X21285Y13608D02*
X21521D01*
X21403Y13490D02*
Y13726D01*
X17879Y13608D02*
X18115D01*
X17997Y13490D02*
Y13726D01*
X21285Y15183D02*
X21521D01*
X21403Y15065D02*
Y15301D01*
X17879Y15183D02*
X18115D01*
X17997Y15065D02*
Y15301D01*
X28740Y30300D02*
X28860D01*
X28800Y30240D02*
Y30360D01*
X28440Y30850D02*
X28560D01*
X28500Y30790D02*
Y30910D01*
X27140Y31250D02*
X27260D01*
X27200Y31190D02*
Y31310D01*
X25890Y32100D02*
X26010D01*
X25950Y32040D02*
Y32160D01*
X25890Y31500D02*
X26010D01*
X25950Y31440D02*
Y31560D01*
X22520Y31750D02*
X22640D01*
X22580Y31690D02*
Y31810D01*
X21900Y18730D02*
X22020D01*
X21960Y18670D02*
Y18790D01*
X22120Y23180D02*
X22240D01*
X22180Y23120D02*
Y23240D01*
X20750Y23340D02*
X20870D01*
X20810Y23280D02*
Y23400D01*
X20533Y23932D02*
X20652D01*
X20593Y23872D02*
Y23993D01*
X22430Y23745D02*
X22550D01*
X22490Y23685D02*
Y23805D01*
X26450Y31120D02*
X26570D01*
X26510Y31060D02*
Y31180D01*
X24120Y17453D02*
X24240D01*
X24180Y17393D02*
Y17513D01*
X25430Y30528D02*
X25550D01*
X25490Y30468D02*
Y30588D01*
X21070Y17530D02*
X21190D01*
X21130Y17470D02*
Y17590D01*
X22975Y17530D02*
X23095D01*
X23035Y17470D02*
Y17590D01*
X18125Y21897D02*
X18245D01*
X18185Y21837D02*
Y21957D01*
X19690Y26800D02*
X19810D01*
X19750Y26740D02*
Y26860D01*
X26970Y29380D02*
X27090D01*
X27030Y29320D02*
Y29440D01*
X27220Y30200D02*
X27340D01*
X27280Y30140D02*
Y30260D01*
X21660Y32420D02*
X21780D01*
X21720Y32360D02*
Y32480D01*
X23528Y32010D02*
X23648D01*
X23588Y31950D02*
Y32070D01*
X19370Y30580D02*
X19490D01*
X19430Y30520D02*
Y30640D01*
X23690Y31140D02*
X23810D01*
X23750Y31080D02*
Y31200D01*
X18430Y26500D02*
X18550D01*
X18490Y26440D02*
Y26560D01*
X28850Y23900D02*
X28970D01*
X28910Y23840D02*
Y23960D01*
X27830Y16190D02*
X27950D01*
X27890Y16130D02*
Y16250D01*
X22920Y23152D02*
X23040D01*
X22980Y23092D02*
Y23212D01*
X21830Y23390D02*
X21950D01*
X21890Y23330D02*
Y23450D01*
X22130Y29280D02*
X22250D01*
X22190Y29220D02*
Y29340D01*
X23480Y29280D02*
X23600D01*
X23540Y29220D02*
Y29340D01*
X18810Y30860D02*
X18930D01*
X18870Y30800D02*
Y30920D01*
X23438Y30860D02*
X23558D01*
X23498Y30800D02*
Y30920D01*
X27930Y23895D02*
X28050D01*
X27990Y23835D02*
Y23955D01*
X22655Y31070D02*
X22775D01*
X22715Y31010D02*
Y31130D01*
X19670Y31315D02*
X19790D01*
X19730Y31255D02*
Y31375D01*
X17565Y16675D02*
X17685D01*
X17625Y16615D02*
Y16735D01*
X27017Y16190D02*
X27137D01*
X27077Y16130D02*
Y16250D01*
X22390Y31220D02*
X22510D01*
X22450Y31160D02*
Y31280D01*
X24690Y32510D02*
X24810D01*
X24750Y32450D02*
Y32570D01*
X19800Y26255D02*
X19920D01*
X19860Y26195D02*
Y26315D01*
X22095Y24350D02*
X22215D01*
X22155Y24290D02*
Y24410D01*
X24145Y29180D02*
X24265D01*
X24205Y29120D02*
Y29240D01*
X18190Y27600D02*
X18310D01*
X18250Y27540D02*
Y27660D01*
X24670Y25325D02*
X24790D01*
X24730Y25265D02*
Y25385D01*
X22690Y25835D02*
X22810D01*
X22750Y25775D02*
Y25895D01*
X25290Y32510D02*
X25410D01*
X25350Y32450D02*
Y32570D01*
X20176Y29741D02*
X20296D01*
X20236Y29681D02*
Y29801D01*
X19876Y27080D02*
X19996D01*
X19936Y27020D02*
Y27140D01*
X20680Y26600D02*
X20800D01*
X20740Y26540D02*
Y26660D01*
X28450Y16600D02*
X28570D01*
X28510Y16540D02*
Y16660D01*
X25420Y30850D02*
X25540D01*
X25480Y30790D02*
Y30910D01*
X18310Y27020D02*
X18430D01*
X18370Y26960D02*
Y27080D01*
X24010Y33435D02*
X24130D01*
X24070Y33375D02*
Y33495D01*
X26060Y29340D02*
X26180D01*
X26120Y29280D02*
Y29400D01*
X20116Y19194D02*
X20236D01*
X20176Y19134D02*
Y19254D01*
X19340Y19970D02*
X19460D01*
X19400Y19910D02*
Y20030D01*
X18754Y16150D02*
X18874D01*
X18814Y16090D02*
Y16210D01*
X20670Y16150D02*
X20790D01*
X20730Y16090D02*
Y16210D01*
X18910Y19290D02*
X19030D01*
X18970Y19230D02*
Y19350D01*
X23040Y22490D02*
X23160D01*
X23100Y22430D02*
Y22550D01*
X23670Y19935D02*
X23790D01*
X23730Y19875D02*
Y19995D01*
X26030Y30456D02*
X26150D01*
X26090Y30396D02*
Y30516D01*
X26050Y30390D02*
X26170D01*
X26110Y30330D02*
Y30450D01*
X24750Y22915D02*
X24870D01*
X24810Y22855D02*
Y22975D01*
X26220Y23030D02*
X26340D01*
X26280Y22970D02*
Y23090D01*
X24960Y22910D02*
X25080D01*
X25020Y22850D02*
Y22970D01*
X25190Y31150D02*
X25310D01*
X25250Y31090D02*
Y31210D01*
X19490Y26340D02*
X19610D01*
X19550Y26280D02*
Y26400D01*
X20490Y18470D02*
X20610D01*
X20550Y18410D02*
Y18530D01*
X27740Y18900D02*
X27860D01*
X27800Y18840D02*
Y18960D01*
X24610Y18450D02*
X24730D01*
X24670Y18390D02*
Y18510D01*
X21200Y19020D02*
X21320D01*
X21260Y18960D02*
Y19080D01*
X25622Y32580D02*
X25742D01*
X25682Y32520D02*
Y32640D01*
X21220Y33270D02*
X21340D01*
X21280Y33210D02*
Y33330D01*
X25960Y27670D02*
X26080D01*
X26020Y27610D02*
Y27730D01*
X23970Y32635D02*
X24090D01*
X24030Y32575D02*
Y32695D01*
X20690Y32540D02*
X20810D01*
X20750Y32480D02*
Y32600D01*
X22140Y27190D02*
X22260D01*
X22200Y27130D02*
Y27250D01*
X22265Y26600D02*
X22385D01*
X22325Y26540D02*
Y26660D01*
X21220Y26600D02*
X21340D01*
X21280Y26540D02*
Y26660D01*
X24970Y18355D02*
X25090D01*
X25030Y18295D02*
Y18415D01*
X21450Y18230D02*
X21570D01*
X21510Y18170D02*
Y18290D01*
X21450Y22750D02*
X21570D01*
X21510Y22690D02*
Y22810D01*
X22650Y29630D02*
X22770D01*
X22710Y29570D02*
Y29690D01*
X20940Y29630D02*
X21060D01*
X21000Y29570D02*
Y29690D01*
X21220Y26680D02*
X21340D01*
X21280Y26620D02*
Y26740D01*
X21220Y27252D02*
X21340D01*
X21280Y27192D02*
Y27312D01*
X20790Y19840D02*
X20910D01*
X20850Y19780D02*
Y19900D01*
X18520Y22530D02*
X18640D01*
X18580Y22470D02*
Y22590D01*
X20370Y20210D02*
X20490D01*
X20430Y20150D02*
Y20270D01*
X27111Y28425D02*
X27231D01*
X27171Y28365D02*
Y28485D01*
X26155Y30090D02*
X26275D01*
X26215Y30030D02*
Y30150D01*
X24730Y32980D02*
X24850D01*
X24790Y32920D02*
Y33040D01*
X26077Y22153D02*
X26197D01*
X26137Y22093D02*
Y22213D01*
X28180Y21445D02*
X28300D01*
X28240Y21385D02*
Y21505D01*
X26700Y14050D02*
X26820D01*
X26760Y13990D02*
Y14110D01*
X25500Y33325D02*
X25620D01*
X25560Y33265D02*
Y33385D01*
X17890Y17710D02*
X18010D01*
X17950Y17650D02*
Y17770D01*
X18910Y18730D02*
X19030D01*
X18970Y18670D02*
Y18790D01*
X23480Y22170D02*
X23600D01*
X23540Y22110D02*
Y22230D01*
X23230Y27900D02*
X23350D01*
X23290Y27840D02*
Y27960D01*
X25300Y27490D02*
X25420D01*
X25360Y27430D02*
Y27550D01*
X24970Y17573D02*
X25090D01*
X25030Y17513D02*
Y17633D01*
M02*
