G04*
G04 #@! TF.GenerationSoftware,Altium Limited,Altium Designer,20.0.13 (296)*
G04*
G04 Layer_Color=8388736*
%FSLAX24Y24*%
%MOIN*%
G70*
G01*
G75*
%ADD87C,0.0020*%
G36*
X16080Y14200D02*
Y14300D01*
X16130D01*
X16140D01*
X16158Y14292D01*
X16172Y14278D01*
X16180Y14260D01*
Y14250D01*
D01*
Y14200D01*
X16080D01*
D02*
G37*
G36*
X28680Y14000D02*
Y14100D01*
X28730D01*
X28740D01*
X28758Y14092D01*
X28772Y14078D01*
X28780Y14060D01*
Y14050D01*
D01*
Y14000D01*
X28680D01*
D02*
G37*
D87*
X16080Y14200D02*
Y14900D01*
X16420D01*
X16080Y14200D02*
X16420D01*
Y14900D01*
X20130Y26400D02*
Y27100D01*
Y26400D02*
X20470D01*
X20130Y27100D02*
X20470D01*
Y26400D02*
Y27100D01*
X27550Y18120D02*
X28250D01*
Y17780D02*
Y18120D01*
X27550Y17780D02*
Y18120D01*
Y17780D02*
X28250D01*
X27500Y18670D02*
X28200D01*
Y18330D02*
Y18670D01*
X27500Y18330D02*
Y18670D01*
Y18330D02*
X28200D01*
X27550Y17620D02*
X28250D01*
Y17280D02*
Y17620D01*
X27550Y17280D02*
Y17620D01*
Y17280D02*
X28250D01*
X27920Y30050D02*
Y30750D01*
X27580Y30050D02*
X27920D01*
X27580Y30750D02*
X27920D01*
X27580Y30050D02*
Y30750D01*
X26400Y29220D02*
X27100D01*
Y28880D02*
Y29220D01*
X26400Y28880D02*
Y29220D01*
Y28880D02*
X27100D01*
X27820Y29100D02*
Y29800D01*
X27480Y29100D02*
X27820D01*
X27480Y29800D02*
X27820D01*
X27480Y29100D02*
Y29800D01*
X26847Y23302D02*
Y24002D01*
X26507Y23302D02*
X26847D01*
X26507Y24002D02*
X26847D01*
X26507Y23302D02*
Y24002D01*
X26247Y23302D02*
Y24002D01*
X25907Y23302D02*
X26247D01*
X25907Y24002D02*
X26247D01*
X25907Y23302D02*
Y24002D01*
X26297Y24202D02*
Y24902D01*
X25957Y24202D02*
X26297D01*
X25957Y24902D02*
X26297D01*
X25957Y24202D02*
Y24902D01*
X28680Y14000D02*
Y14700D01*
X29020D01*
X28680Y14000D02*
X29020D01*
Y14700D01*
X26480Y24100D02*
Y24800D01*
X26820D01*
X26480Y24100D02*
X26820D01*
Y24800D01*
X30420Y17100D02*
Y19600D01*
X28920D02*
X30420D01*
X28920Y17100D02*
Y19600D01*
Y17100D02*
X30420D01*
Y23000D02*
Y25500D01*
X28920D02*
X30420D01*
X28920Y23000D02*
Y25500D01*
Y23000D02*
X30420D01*
Y28450D02*
Y30950D01*
X28920D02*
X30420D01*
X28920Y28450D02*
Y30950D01*
Y28450D02*
X30420D01*
M02*
