G04*
G04 #@! TF.GenerationSoftware,Altium Limited,Altium Designer,20.0.13 (296)*
G04*
G04 Layer_Color=65535*
%FSLAX24Y24*%
%MOIN*%
G70*
G01*
G75*
%ADD10C,0.0100*%
%ADD11C,0.0098*%
%ADD12C,0.0079*%
%ADD13C,0.0010*%
%ADD14C,0.0060*%
%ADD15C,0.0080*%
%ADD16C,0.0039*%
%ADD17C,0.0050*%
G36*
X27840Y30430D02*
X27660D01*
Y30465D01*
X27840D01*
Y30430D01*
D02*
G37*
G36*
Y30335D02*
X27660D01*
Y30370D01*
X27840D01*
Y30335D01*
D02*
G37*
G36*
X27740Y29480D02*
X27560D01*
Y29515D01*
X27740D01*
Y29480D01*
D02*
G37*
G36*
Y29385D02*
X27560D01*
Y29420D01*
X27740D01*
Y29385D01*
D02*
G37*
G36*
X26815Y28960D02*
X26780D01*
Y29140D01*
X26815D01*
Y28960D01*
D02*
G37*
G36*
X26720D02*
X26685D01*
Y29140D01*
X26720D01*
Y28960D01*
D02*
G37*
G36*
X26217Y24582D02*
X26037D01*
Y24617D01*
X26217D01*
Y24582D01*
D02*
G37*
G36*
Y24487D02*
X26037D01*
Y24522D01*
X26217D01*
Y24487D01*
D02*
G37*
G36*
X26740Y24480D02*
X26560D01*
Y24515D01*
X26740D01*
Y24480D01*
D02*
G37*
G36*
Y24385D02*
X26560D01*
Y24420D01*
X26740D01*
Y24385D01*
D02*
G37*
G36*
X26767Y23682D02*
X26587D01*
Y23717D01*
X26767D01*
Y23682D01*
D02*
G37*
G36*
X26167D02*
X25987D01*
Y23717D01*
X26167D01*
Y23682D01*
D02*
G37*
G36*
X26767Y23587D02*
X26587D01*
Y23622D01*
X26767D01*
Y23587D01*
D02*
G37*
G36*
X26167D02*
X25987D01*
Y23622D01*
X26167D01*
Y23587D01*
D02*
G37*
G36*
X27915Y18410D02*
X27880D01*
Y18590D01*
X27915D01*
Y18410D01*
D02*
G37*
G36*
X27820D02*
X27785D01*
Y18590D01*
X27820D01*
Y18410D01*
D02*
G37*
G36*
X27965Y17860D02*
X27930D01*
Y18040D01*
X27965D01*
Y17860D01*
D02*
G37*
G36*
X27870D02*
X27835D01*
Y18040D01*
X27870D01*
Y17860D01*
D02*
G37*
G36*
X27965Y17360D02*
X27930D01*
Y17540D01*
X27965D01*
Y17360D01*
D02*
G37*
G36*
X27870D02*
X27835D01*
Y17540D01*
X27870D01*
Y17360D01*
D02*
G37*
G36*
X16275Y14535D02*
X16355D01*
Y14495D01*
X16145D01*
Y14535D01*
X16225D01*
Y14605D01*
X16275D01*
Y14535D01*
D02*
G37*
G36*
X28875Y14335D02*
X28955D01*
Y14295D01*
X28745D01*
Y14335D01*
X28825D01*
Y14405D01*
X28875D01*
Y14335D01*
D02*
G37*
D10*
X27750Y14900D02*
G03*
X27250Y14900I-250J-1D01*
G01*
X27250Y14300D02*
G03*
X27750Y14300I250J0D01*
G01*
X24350Y14850D02*
G03*
X23850Y14850I-250J-1D01*
G01*
X23850Y14250D02*
G03*
X24350Y14250I250J0D01*
G01*
X27750Y14300D02*
Y14900D01*
X27250Y14300D02*
Y14900D01*
X28142Y15427D02*
X28169D01*
X27296D02*
X27704D01*
X26831D02*
X26858D01*
X28142Y13773D02*
X28169D01*
X27296D02*
X27704D01*
X26831D02*
X26858D01*
X28169D02*
Y15427D01*
X26831Y13773D02*
X26831Y15427D01*
X24350Y14250D02*
Y14850D01*
X23850Y14250D02*
Y14850D01*
X24742Y15377D02*
X24769D01*
X23896D02*
X24304D01*
X23431D02*
X23458D01*
X24742Y13723D02*
X24769D01*
X23896D02*
X24304D01*
X23431D02*
X23458D01*
X24769D02*
Y15377D01*
X23431Y13723D02*
X23431Y15377D01*
X24070Y32690D02*
Y33300D01*
D11*
X18399Y22300D02*
G03*
X18399Y22300I-49J0D01*
G01*
X23318Y24542D02*
G03*
X23318Y24542I-49J0D01*
G01*
D12*
X15200Y16500D02*
X16200D01*
Y33800D01*
Y33750D02*
Y34500D01*
X15200D02*
X16200D01*
X15200Y16500D02*
Y34500D01*
X15208Y33508D02*
X16192D01*
X16300Y16500D02*
X17300D01*
Y33800D01*
Y33750D02*
Y34500D01*
X16300D02*
X17300D01*
X16300Y16500D02*
Y34500D01*
X16308Y33508D02*
X17292D01*
X26860Y17461D02*
Y17796D01*
X26427Y17461D02*
X26860D01*
Y18347D02*
Y18682D01*
X26427D02*
X26860D01*
X18478Y18157D02*
Y18689D01*
X19522Y18157D02*
Y18689D01*
X19344Y18157D02*
X19523D01*
X18478D02*
X18656D01*
X21072Y18461D02*
Y18993D01*
X20028Y18461D02*
Y18993D01*
X20027D02*
X20206D01*
X20894D02*
X21072D01*
X23643Y23243D02*
Y23450D01*
Y23243D02*
X23850D01*
X25050D02*
X25257D01*
Y23450D01*
Y24650D02*
Y24857D01*
X25050D02*
X25257D01*
X23643D02*
X23850D01*
X23643Y24650D02*
Y24857D01*
D13*
X16145Y14495D02*
Y14535D01*
X16275D02*
Y14605D01*
X16225Y14535D02*
Y14605D01*
X16355Y14495D02*
Y14535D01*
X16275D02*
X16355D01*
X16225Y14605D02*
X16275D01*
X16145Y14535D02*
X16225D01*
X16145Y14495D02*
X16355D01*
X27835Y18040D02*
X27870D01*
X27835Y17860D02*
X27870D01*
Y18040D01*
X27835Y17860D02*
Y18040D01*
X27965Y17860D02*
Y18040D01*
X27930Y17860D02*
Y18040D01*
X27965D01*
X27930Y17860D02*
X27965D01*
X27785Y18590D02*
X27820D01*
X27785Y18410D02*
X27820D01*
Y18590D01*
X27785Y18410D02*
Y18590D01*
X27915Y18410D02*
Y18590D01*
X27880Y18410D02*
Y18590D01*
X27915D01*
X27880Y18410D02*
X27915D01*
X27835Y17540D02*
X27870D01*
X27835Y17360D02*
X27870D01*
Y17540D01*
X27835Y17360D02*
Y17540D01*
X27965Y17360D02*
Y17540D01*
X27930Y17360D02*
Y17540D01*
X27965D01*
X27930Y17360D02*
X27965D01*
X27840Y30430D02*
Y30465D01*
X27660Y30430D02*
Y30465D01*
Y30430D02*
X27840D01*
X27660Y30465D02*
X27840D01*
X27660Y30335D02*
X27840D01*
X27660Y30370D02*
X27840D01*
Y30335D02*
Y30370D01*
X27660Y30335D02*
Y30370D01*
X26685Y29140D02*
X26720D01*
X26685Y28960D02*
X26720D01*
Y29140D01*
X26685Y28960D02*
Y29140D01*
X26815Y28960D02*
Y29140D01*
X26780Y28960D02*
Y29140D01*
X26815D01*
X26780Y28960D02*
X26815D01*
X27740Y29480D02*
Y29515D01*
X27560Y29480D02*
Y29515D01*
Y29480D02*
X27740D01*
X27560Y29515D02*
X27740D01*
X27560Y29385D02*
X27740D01*
X27560Y29420D02*
X27740D01*
Y29385D02*
Y29420D01*
X27560Y29385D02*
Y29420D01*
X26767Y23682D02*
Y23717D01*
X26587Y23682D02*
Y23717D01*
Y23682D02*
X26767D01*
X26587Y23717D02*
X26767D01*
X26587Y23587D02*
X26767D01*
X26587Y23622D02*
X26767D01*
Y23587D02*
Y23622D01*
X26587Y23587D02*
Y23622D01*
X26167Y23682D02*
Y23717D01*
X25987Y23682D02*
Y23717D01*
Y23682D02*
X26167D01*
X25987Y23717D02*
X26167D01*
X25987Y23587D02*
X26167D01*
X25987Y23622D02*
X26167D01*
Y23587D02*
Y23622D01*
X25987Y23587D02*
Y23622D01*
X26217Y24582D02*
Y24617D01*
X26037Y24582D02*
Y24617D01*
Y24582D02*
X26217D01*
X26037Y24617D02*
X26217D01*
X26037Y24487D02*
X26217D01*
X26037Y24522D02*
X26217D01*
Y24487D02*
Y24522D01*
X26037Y24487D02*
Y24522D01*
X28745Y14295D02*
Y14335D01*
X28875D02*
Y14405D01*
X28825Y14335D02*
Y14405D01*
X28955Y14295D02*
Y14335D01*
X28875D02*
X28955D01*
X28825Y14405D02*
X28875D01*
X28745Y14335D02*
X28825D01*
X28745Y14295D02*
X28955D01*
X26560Y24385D02*
Y24420D01*
X26740Y24385D02*
Y24420D01*
X26560D02*
X26740D01*
X26560Y24385D02*
X26740D01*
X26560Y24515D02*
X26740D01*
X26560Y24480D02*
X26740D01*
X26560D02*
Y24515D01*
X26740Y24480D02*
Y24515D01*
D14*
X27823Y20275D02*
Y20925D01*
X28177Y20275D02*
Y20925D01*
X27823Y20275D02*
X28177D01*
X27823Y20925D02*
X28177D01*
X18715Y20715D02*
Y20918D01*
Y22482D02*
Y22685D01*
X20482D02*
X20685D01*
Y20715D02*
Y20918D01*
X18715Y20715D02*
X18918D01*
X18715Y22685D02*
X18918D01*
X20482Y20715D02*
X20685D01*
Y22482D02*
Y22685D01*
X18625Y19773D02*
X19275D01*
X18625Y20127D02*
X19275D01*
Y19773D02*
Y20127D01*
X18625Y19773D02*
Y20127D01*
X19758Y19773D02*
X20407D01*
X19758Y20127D02*
X20407D01*
Y19773D02*
Y20127D01*
X19758Y19773D02*
Y20127D01*
X26393Y29877D02*
X27042D01*
X26393Y29523D02*
X27042D01*
X26393D02*
Y29877D01*
X27042Y29523D02*
Y29877D01*
X18993Y23427D02*
X19642D01*
X18993Y23073D02*
X19642D01*
X18993D02*
Y23427D01*
X19642Y23073D02*
Y23427D01*
X19808Y23073D02*
X20457D01*
X19808Y23427D02*
X20457D01*
Y23073D02*
Y23427D01*
X19808Y23073D02*
Y23427D01*
X26393Y30677D02*
X27042D01*
X26393Y30323D02*
X27042D01*
X26393D02*
Y30677D01*
X27042Y30323D02*
Y30677D01*
X18743Y16323D02*
X19392D01*
X18743Y16677D02*
X19392D01*
Y16323D02*
Y16677D01*
X18743Y16323D02*
Y16677D01*
X20258Y16677D02*
X20907D01*
X20258Y16323D02*
X20907D01*
X20258D02*
Y16677D01*
X20907Y16323D02*
Y16677D01*
X29577Y13993D02*
Y14642D01*
X29223Y13993D02*
Y14642D01*
X29577D01*
X29223Y13993D02*
X29577D01*
X30220Y17450D02*
X30260Y17490D01*
Y19210D01*
X29080Y17480D02*
X29120Y17440D01*
X29080Y17480D02*
Y19220D01*
X29120Y19260D01*
X30220Y19250D02*
X30260Y19210D01*
X16977Y14225D02*
Y14875D01*
X16623Y14225D02*
Y14875D01*
X16977D01*
X16623Y14225D02*
X16977D01*
X30220Y23350D02*
X30260Y23390D01*
Y25110D01*
X29080Y23380D02*
X29120Y23340D01*
X29080Y23380D02*
Y25120D01*
X29120Y25160D01*
X30220Y25150D02*
X30260Y25110D01*
X24373Y15893D02*
Y16542D01*
X24727Y15893D02*
Y16542D01*
X24373Y15893D02*
X24727D01*
X24373Y16542D02*
X24727D01*
X30220Y28800D02*
X30260Y28840D01*
Y30560D01*
X29080Y28830D02*
X29120Y28790D01*
X29080Y28830D02*
Y30570D01*
X29120Y30610D01*
X30220Y30600D02*
X30260Y30560D01*
D15*
X21400Y13986D02*
Y14686D01*
X21403Y12584D02*
Y13186D01*
X18000Y13986D02*
Y14686D01*
X17997Y12584D02*
Y13186D01*
Y12584D02*
X21403D01*
X26632Y21262D02*
X26766D01*
X26699D01*
Y21662D01*
X26632Y21595D01*
X21253Y21256D02*
X21387D01*
X21320D01*
Y21656D01*
X21253Y21589D01*
X21786Y21256D02*
Y21656D01*
X21586Y21456D01*
X21853D01*
D16*
X25694Y28783D02*
X25852Y28941D01*
X23096Y31381D02*
Y31539D01*
X25694D02*
X25852D01*
Y31381D02*
Y31539D01*
X23096D02*
X23253D01*
X23096Y28783D02*
X23253D01*
X23096D02*
Y28941D01*
D17*
X15667Y33900D02*
X15733D01*
X15700D01*
Y34100D01*
X15667Y34067D01*
X27840Y21200D02*
Y21400D01*
X27940D01*
X27973Y21367D01*
Y21300D01*
X27940Y21267D01*
X27840D01*
X27907D02*
X27973Y21200D01*
X28040D02*
X28107D01*
X28073D01*
Y21400D01*
X28040Y21367D01*
X28340Y21400D02*
X28207D01*
Y21300D01*
X28273Y21333D01*
X28307D01*
X28340Y21300D01*
Y21233D01*
X28307Y21200D01*
X28240D01*
X28207Y21233D01*
X19930Y19720D02*
Y19587D01*
X19997Y19520D01*
X20063Y19587D01*
Y19720D01*
X20130D02*
X20263D01*
X20197D01*
Y19520D01*
X20463D02*
X20330D01*
X20463Y19653D01*
Y19687D01*
X20430Y19720D01*
X20363D01*
X20330Y19687D01*
X18380Y19770D02*
Y19637D01*
X18447Y19570D01*
X18513Y19637D01*
Y19770D01*
X18580D02*
X18713D01*
X18647D01*
Y19570D01*
X18780D02*
X18847D01*
X18813D01*
Y19770D01*
X18780Y19737D01*
X17820Y16360D02*
Y16193D01*
X17853Y16160D01*
X17920D01*
X17953Y16193D01*
Y16360D01*
X18153Y16327D02*
X18120Y16360D01*
X18053D01*
X18020Y16327D01*
Y16293D01*
X18053Y16260D01*
X18120D01*
X18153Y16227D01*
Y16193D01*
X18120Y16160D01*
X18053D01*
X18020Y16193D01*
X18220Y16360D02*
Y16160D01*
X18320D01*
X18353Y16193D01*
Y16227D01*
X18320Y16260D01*
X18220D01*
X18320D01*
X18353Y16293D01*
Y16327D01*
X18320Y16360D01*
X18220D01*
X18420Y16160D02*
X18486D01*
X18453D01*
Y16360D01*
X18420Y16327D01*
X23220Y25680D02*
Y25513D01*
X23253Y25480D01*
X23320D01*
X23353Y25513D01*
Y25680D01*
X23520Y25480D02*
Y25680D01*
X23420Y25580D01*
X23553D01*
X23040Y32090D02*
Y31923D01*
X23073Y31890D01*
X23140D01*
X23173Y31923D01*
Y32090D01*
X23240Y32057D02*
X23273Y32090D01*
X23340D01*
X23373Y32057D01*
Y32023D01*
X23340Y31990D01*
X23307D01*
X23340D01*
X23373Y31957D01*
Y31923D01*
X23340Y31890D01*
X23273D01*
X23240Y31923D01*
X25640Y19250D02*
Y19083D01*
X25673Y19050D01*
X25740D01*
X25773Y19083D01*
Y19250D01*
X25973Y19050D02*
X25840D01*
X25973Y19183D01*
Y19217D01*
X25940Y19250D01*
X25873D01*
X25840Y19217D01*
X18300Y23300D02*
Y23133D01*
X18333Y23100D01*
X18400D01*
X18433Y23133D01*
Y23300D01*
X18500Y23100D02*
X18567D01*
X18533D01*
Y23300D01*
X18500Y23267D01*
X21220Y22360D02*
X21353D01*
X21287D01*
Y22160D01*
X21420D02*
X21487D01*
X21453D01*
Y22360D01*
X21420Y22327D01*
X24390Y16820D02*
Y17020D01*
X24490D01*
X24523Y16987D01*
Y16920D01*
X24490Y16887D01*
X24390D01*
X24457D02*
X24523Y16820D01*
X24723D02*
X24590D01*
X24723Y16953D01*
Y16987D01*
X24690Y17020D01*
X24623D01*
X24590Y16987D01*
X24790D02*
X24823Y17020D01*
X24890D01*
X24923Y16987D01*
Y16853D01*
X24890Y16820D01*
X24823D01*
X24790Y16853D01*
Y16987D01*
X16640Y15150D02*
Y15350D01*
X16740D01*
X16773Y15317D01*
Y15250D01*
X16740Y15217D01*
X16640D01*
X16707D02*
X16773Y15150D01*
X16840D02*
X16907D01*
X16873D01*
Y15350D01*
X16840Y15317D01*
X17007Y15183D02*
X17040Y15150D01*
X17107D01*
X17140Y15183D01*
Y15317D01*
X17107Y15350D01*
X17040D01*
X17007Y15317D01*
Y15283D01*
X17040Y15250D01*
X17140D01*
X29240Y14920D02*
Y15120D01*
X29340D01*
X29373Y15087D01*
Y15020D01*
X29340Y14987D01*
X29240D01*
X29307D02*
X29373Y14920D01*
X29440D02*
X29507D01*
X29473D01*
Y15120D01*
X29440Y15087D01*
X29607Y15120D02*
X29740D01*
Y15087D01*
X29607Y14953D01*
Y14920D01*
X20280Y16960D02*
Y17160D01*
X20380D01*
X20413Y17127D01*
Y17060D01*
X20380Y17027D01*
X20280D01*
X20347D02*
X20413Y16960D01*
X20480D02*
X20547D01*
X20513D01*
Y17160D01*
X20480Y17127D01*
X20780Y16960D02*
X20647D01*
X20780Y17093D01*
Y17127D01*
X20747Y17160D01*
X20680D01*
X20647Y17127D01*
X18760Y16960D02*
Y17160D01*
X18860D01*
X18893Y17127D01*
Y17060D01*
X18860Y17027D01*
X18760D01*
X18827D02*
X18893Y16960D01*
X18960D02*
X19027D01*
X18993D01*
Y17160D01*
X18960Y17127D01*
X19127Y16960D02*
X19193D01*
X19160D01*
Y17160D01*
X19127Y17127D01*
X26410Y30960D02*
Y31160D01*
X26510D01*
X26543Y31127D01*
Y31060D01*
X26510Y31027D01*
X26410D01*
X26477D02*
X26543Y30960D01*
X26610Y31160D02*
X26743D01*
Y31127D01*
X26610Y30993D01*
Y30960D01*
X19830Y23710D02*
Y23910D01*
X19930D01*
X19963Y23877D01*
Y23810D01*
X19930Y23777D01*
X19830D01*
X19897D02*
X19963Y23710D01*
X20163Y23910D02*
X20030D01*
Y23810D01*
X20097Y23843D01*
X20130D01*
X20163Y23810D01*
Y23743D01*
X20130Y23710D01*
X20063D01*
X20030Y23743D01*
X19010Y23710D02*
Y23910D01*
X19110D01*
X19143Y23877D01*
Y23810D01*
X19110Y23777D01*
X19010D01*
X19077D02*
X19143Y23710D01*
X19310D02*
Y23910D01*
X19210Y23810D01*
X19343D01*
X26410Y30160D02*
Y30360D01*
X26510D01*
X26543Y30327D01*
Y30260D01*
X26510Y30227D01*
X26410D01*
X26477D02*
X26543Y30160D01*
X26610Y30327D02*
X26643Y30360D01*
X26710D01*
X26743Y30327D01*
Y30293D01*
X26710Y30260D01*
X26677D01*
X26710D01*
X26743Y30227D01*
Y30193D01*
X26710Y30160D01*
X26643D01*
X26610Y30193D01*
X19780Y20410D02*
Y20610D01*
X19880D01*
X19913Y20577D01*
Y20510D01*
X19880Y20477D01*
X19780D01*
X19847D02*
X19913Y20410D01*
X20113D02*
X19980D01*
X20113Y20543D01*
Y20577D01*
X20080Y20610D01*
X20013D01*
X19980Y20577D01*
X18650Y20410D02*
Y20610D01*
X18750D01*
X18783Y20577D01*
Y20510D01*
X18750Y20477D01*
X18650D01*
X18717D02*
X18783Y20410D01*
X18850D02*
X18917D01*
X18883D01*
Y20610D01*
X18850Y20577D01*
X26830Y16120D02*
Y15920D01*
Y15987D01*
X26963Y16120D01*
X26863Y16020D01*
X26963Y15920D01*
X27163Y16120D02*
X27030D01*
Y16020D01*
X27097Y16053D01*
X27130D01*
X27163Y16020D01*
Y15953D01*
X27130Y15920D01*
X27063D01*
X27030Y15953D01*
X28960Y31410D02*
Y31210D01*
Y31277D01*
X29093Y31410D01*
X28993Y31310D01*
X29093Y31210D01*
X29260D02*
Y31410D01*
X29160Y31310D01*
X29293D01*
X23430Y16070D02*
Y15870D01*
Y15937D01*
X23563Y16070D01*
X23463Y15970D01*
X23563Y15870D01*
X23630Y16037D02*
X23663Y16070D01*
X23730D01*
X23763Y16037D01*
Y16003D01*
X23730Y15970D01*
X23697D01*
X23730D01*
X23763Y15937D01*
Y15903D01*
X23730Y15870D01*
X23663D01*
X23630Y15903D01*
X28960Y25960D02*
Y25760D01*
Y25827D01*
X29093Y25960D01*
X28993Y25860D01*
X29093Y25760D01*
X29293D02*
X29160D01*
X29293Y25893D01*
Y25927D01*
X29260Y25960D01*
X29193D01*
X29160Y25927D01*
X28960Y20060D02*
Y19860D01*
Y19927D01*
X29093Y20060D01*
X28993Y19960D01*
X29093Y19860D01*
X29160D02*
X29227D01*
X29193D01*
Y20060D01*
X29160Y20027D01*
X17450Y33950D02*
X17383D01*
X17417D01*
Y33783D01*
X17383Y33750D01*
X17350D01*
X17317Y33783D01*
X17517Y33750D02*
Y33950D01*
X17617D01*
X17650Y33917D01*
Y33850D01*
X17617Y33817D01*
X17517D01*
X17717Y33750D02*
X17783D01*
X17750D01*
Y33950D01*
X17717Y33917D01*
X16120Y15360D02*
Y15160D01*
X16220D01*
X16253Y15193D01*
Y15327D01*
X16220Y15360D01*
X16120D01*
X16453Y15160D02*
X16320D01*
X16453Y15293D01*
Y15327D01*
X16420Y15360D01*
X16353D01*
X16320Y15327D01*
X28720Y15160D02*
Y14960D01*
X28820D01*
X28853Y14993D01*
Y15127D01*
X28820Y15160D01*
X28720D01*
X28920Y14960D02*
X28987D01*
X28953D01*
Y15160D01*
X28920Y15127D01*
X26653Y25227D02*
X26620Y25260D01*
X26553D01*
X26520Y25227D01*
Y25093D01*
X26553Y25060D01*
X26620D01*
X26653Y25093D01*
X26720Y25060D02*
X26787D01*
X26753D01*
Y25260D01*
X26720Y25227D01*
X27020Y25260D02*
X26953Y25227D01*
X26887Y25160D01*
Y25093D01*
X26920Y25060D01*
X26987D01*
X27020Y25093D01*
Y25127D01*
X26987Y25160D01*
X26887D01*
X26133Y25327D02*
X26100Y25360D01*
X26033D01*
X26000Y25327D01*
Y25193D01*
X26033Y25160D01*
X26100D01*
X26133Y25193D01*
X26200Y25160D02*
X26267D01*
X26233D01*
Y25360D01*
X26200Y25327D01*
X26367D02*
X26400Y25360D01*
X26467D01*
X26500Y25327D01*
Y25293D01*
X26467Y25260D01*
X26433D01*
X26467D01*
X26500Y25227D01*
Y25193D01*
X26467Y25160D01*
X26400D01*
X26367Y25193D01*
X26083Y24427D02*
X26050Y24460D01*
X25983D01*
X25950Y24427D01*
Y24293D01*
X25983Y24260D01*
X26050D01*
X26083Y24293D01*
X26150Y24260D02*
X26217D01*
X26183D01*
Y24460D01*
X26150Y24427D01*
X26450Y24260D02*
X26317D01*
X26450Y24393D01*
Y24427D01*
X26417Y24460D01*
X26350D01*
X26317Y24427D01*
X26683D02*
X26650Y24460D01*
X26583D01*
X26550Y24427D01*
Y24293D01*
X26583Y24260D01*
X26650D01*
X26683Y24293D01*
X26750Y24427D02*
X26783Y24460D01*
X26850D01*
X26883Y24427D01*
Y24393D01*
X26850Y24360D01*
X26883Y24327D01*
Y24293D01*
X26850Y24260D01*
X26783D01*
X26750Y24293D01*
Y24327D01*
X26783Y24360D01*
X26750Y24393D01*
Y24427D01*
X26783Y24360D02*
X26850D01*
X27653Y30227D02*
X27620Y30260D01*
X27553D01*
X27520Y30227D01*
Y30093D01*
X27553Y30060D01*
X27620D01*
X27653Y30093D01*
X27853Y30260D02*
X27787Y30227D01*
X27720Y30160D01*
Y30093D01*
X27753Y30060D01*
X27820D01*
X27853Y30093D01*
Y30127D01*
X27820Y30160D01*
X27720D01*
X27753Y31177D02*
X27720Y31210D01*
X27653D01*
X27620Y31177D01*
Y31043D01*
X27653Y31010D01*
X27720D01*
X27753Y31043D01*
X27953Y31210D02*
X27820D01*
Y31110D01*
X27887Y31143D01*
X27920D01*
X27953Y31110D01*
Y31043D01*
X27920Y31010D01*
X27853D01*
X27820Y31043D01*
X26573Y29647D02*
X26540Y29680D01*
X26473D01*
X26440Y29647D01*
Y29513D01*
X26473Y29480D01*
X26540D01*
X26573Y29513D01*
X26740Y29480D02*
Y29680D01*
X26640Y29580D01*
X26773D01*
X27723Y18047D02*
X27690Y18080D01*
X27623D01*
X27590Y18047D01*
Y17913D01*
X27623Y17880D01*
X27690D01*
X27723Y17913D01*
X27790Y18047D02*
X27823Y18080D01*
X27890D01*
X27923Y18047D01*
Y18013D01*
X27890Y17980D01*
X27857D01*
X27890D01*
X27923Y17947D01*
Y17913D01*
X27890Y17880D01*
X27823D01*
X27790Y17913D01*
X27723Y18547D02*
X27690Y18580D01*
X27623D01*
X27590Y18547D01*
Y18413D01*
X27623Y18380D01*
X27690D01*
X27723Y18413D01*
X27923Y18380D02*
X27790D01*
X27923Y18513D01*
Y18547D01*
X27890Y18580D01*
X27823D01*
X27790Y18547D01*
X27673Y19097D02*
X27640Y19130D01*
X27573D01*
X27540Y19097D01*
Y18963D01*
X27573Y18930D01*
X27640D01*
X27673Y18963D01*
X27740Y18930D02*
X27807D01*
X27773D01*
Y19130D01*
X27740Y19097D01*
X22310Y33630D02*
Y33763D01*
X22377Y33830D01*
X22443Y33763D01*
Y33630D01*
Y33730D01*
X22310D01*
X22510Y33630D02*
X22577D01*
X22543D01*
Y33830D01*
X22510Y33797D01*
M02*
