G04*
G04 #@! TF.GenerationSoftware,Altium Limited,Altium Designer,20.0.13 (296)*
G04*
G04 Layer_Color=8388736*
%FSLAX24Y24*%
%MOIN*%
G70*
G01*
G75*
%ADD38R,0.0327X0.0445*%
G04:AMPARAMS|DCode=39|XSize=25.2mil|YSize=25.2mil|CornerRadius=7.6mil|HoleSize=0mil|Usage=FLASHONLY|Rotation=180.000|XOffset=0mil|YOffset=0mil|HoleType=Round|Shape=RoundedRectangle|*
%AMROUNDEDRECTD39*
21,1,0.0252,0.0100,0,0,180.0*
21,1,0.0100,0.0252,0,0,180.0*
1,1,0.0152,-0.0050,0.0050*
1,1,0.0152,0.0050,0.0050*
1,1,0.0152,0.0050,-0.0050*
1,1,0.0152,-0.0050,-0.0050*
%
%ADD39ROUNDEDRECTD39*%
%ADD40R,0.0248X0.0209*%
%ADD41R,0.0209X0.1626*%
G04:AMPARAMS|DCode=42|XSize=28.8mil|YSize=40.2mil|CornerRadius=8.5mil|HoleSize=0mil|Usage=FLASHONLY|Rotation=90.000|XOffset=0mil|YOffset=0mil|HoleType=Round|Shape=RoundedRectangle|*
%AMROUNDEDRECTD42*
21,1,0.0288,0.0232,0,0,90.0*
21,1,0.0118,0.0402,0,0,90.0*
1,1,0.0170,0.0116,0.0059*
1,1,0.0170,0.0116,-0.0059*
1,1,0.0170,-0.0116,-0.0059*
1,1,0.0170,-0.0116,0.0059*
%
%ADD42ROUNDEDRECTD42*%
%ADD43R,0.1115X0.1154*%
G04:AMPARAMS|DCode=44|XSize=22mil|YSize=48mil|CornerRadius=8mil|HoleSize=0mil|Usage=FLASHONLY|Rotation=180.000|XOffset=0mil|YOffset=0mil|HoleType=Round|Shape=RoundedRectangle|*
%AMROUNDEDRECTD44*
21,1,0.0220,0.0320,0,0,180.0*
21,1,0.0060,0.0480,0,0,180.0*
1,1,0.0160,-0.0030,0.0160*
1,1,0.0160,0.0030,0.0160*
1,1,0.0160,0.0030,-0.0160*
1,1,0.0160,-0.0030,-0.0160*
%
%ADD44ROUNDEDRECTD44*%
G04:AMPARAMS|DCode=45|XSize=22mil|YSize=48mil|CornerRadius=8mil|HoleSize=0mil|Usage=FLASHONLY|Rotation=270.000|XOffset=0mil|YOffset=0mil|HoleType=Round|Shape=RoundedRectangle|*
%AMROUNDEDRECTD45*
21,1,0.0220,0.0320,0,0,270.0*
21,1,0.0060,0.0480,0,0,270.0*
1,1,0.0160,-0.0160,-0.0030*
1,1,0.0160,-0.0160,0.0030*
1,1,0.0160,0.0160,0.0030*
1,1,0.0160,0.0160,-0.0030*
%
%ADD45ROUNDEDRECTD45*%
%ADD46R,0.0209X0.0248*%
G04:AMPARAMS|DCode=47|XSize=42.6mil|YSize=44.5mil|CornerRadius=11.9mil|HoleSize=0mil|Usage=FLASHONLY|Rotation=180.000|XOffset=0mil|YOffset=0mil|HoleType=Round|Shape=RoundedRectangle|*
%AMROUNDEDRECTD47*
21,1,0.0426,0.0207,0,0,180.0*
21,1,0.0187,0.0445,0,0,180.0*
1,1,0.0239,-0.0094,0.0103*
1,1,0.0239,0.0094,0.0103*
1,1,0.0239,0.0094,-0.0103*
1,1,0.0239,-0.0094,-0.0103*
%
%ADD47ROUNDEDRECTD47*%
G04:AMPARAMS|DCode=48|XSize=25.2mil|YSize=25.2mil|CornerRadius=7.6mil|HoleSize=0mil|Usage=FLASHONLY|Rotation=270.000|XOffset=0mil|YOffset=0mil|HoleType=Round|Shape=RoundedRectangle|*
%AMROUNDEDRECTD48*
21,1,0.0252,0.0100,0,0,270.0*
21,1,0.0100,0.0252,0,0,270.0*
1,1,0.0152,-0.0050,-0.0050*
1,1,0.0152,-0.0050,0.0050*
1,1,0.0152,0.0050,0.0050*
1,1,0.0152,0.0050,-0.0050*
%
%ADD48ROUNDEDRECTD48*%
G04:AMPARAMS|DCode=49|XSize=36.7mil|YSize=76mil|CornerRadius=10.5mil|HoleSize=0mil|Usage=FLASHONLY|Rotation=180.000|XOffset=0mil|YOffset=0mil|HoleType=Round|Shape=RoundedRectangle|*
%AMROUNDEDRECTD49*
21,1,0.0367,0.0551,0,0,180.0*
21,1,0.0157,0.0760,0,0,180.0*
1,1,0.0209,-0.0079,0.0276*
1,1,0.0209,0.0079,0.0276*
1,1,0.0209,0.0079,-0.0276*
1,1,0.0209,-0.0079,-0.0276*
%
%ADD49ROUNDEDRECTD49*%
G04:AMPARAMS|DCode=50|XSize=64.2mil|YSize=17mil|CornerRadius=5.5mil|HoleSize=0mil|Usage=FLASHONLY|Rotation=90.000|XOffset=0mil|YOffset=0mil|HoleType=Round|Shape=RoundedRectangle|*
%AMROUNDEDRECTD50*
21,1,0.0642,0.0059,0,0,90.0*
21,1,0.0531,0.0170,0,0,90.0*
1,1,0.0111,0.0030,0.0266*
1,1,0.0111,0.0030,-0.0266*
1,1,0.0111,-0.0030,-0.0266*
1,1,0.0111,-0.0030,0.0266*
%
%ADD50ROUNDEDRECTD50*%
G04:AMPARAMS|DCode=51|XSize=165.2mil|YSize=165.2mil|CornerRadius=18.6mil|HoleSize=0mil|Usage=FLASHONLY|Rotation=180.000|XOffset=0mil|YOffset=0mil|HoleType=Round|Shape=RoundedRectangle|*
%AMROUNDEDRECTD51*
21,1,0.1652,0.1280,0,0,180.0*
21,1,0.1280,0.1652,0,0,180.0*
1,1,0.0372,-0.0640,0.0640*
1,1,0.0372,0.0640,0.0640*
1,1,0.0372,0.0640,-0.0640*
1,1,0.0372,-0.0640,-0.0640*
%
%ADD51ROUNDEDRECTD51*%
G04:AMPARAMS|DCode=52|XSize=31.7mil|YSize=15mil|CornerRadius=5mil|HoleSize=0mil|Usage=FLASHONLY|Rotation=180.000|XOffset=0mil|YOffset=0mil|HoleType=Round|Shape=RoundedRectangle|*
%AMROUNDEDRECTD52*
21,1,0.0317,0.0049,0,0,180.0*
21,1,0.0217,0.0150,0,0,180.0*
1,1,0.0101,-0.0108,0.0025*
1,1,0.0101,0.0108,0.0025*
1,1,0.0101,0.0108,-0.0025*
1,1,0.0101,-0.0108,-0.0025*
%
%ADD52ROUNDEDRECTD52*%
G04:AMPARAMS|DCode=53|XSize=31.7mil|YSize=15mil|CornerRadius=5mil|HoleSize=0mil|Usage=FLASHONLY|Rotation=270.000|XOffset=0mil|YOffset=0mil|HoleType=Round|Shape=RoundedRectangle|*
%AMROUNDEDRECTD53*
21,1,0.0317,0.0049,0,0,270.0*
21,1,0.0217,0.0150,0,0,270.0*
1,1,0.0101,-0.0025,-0.0108*
1,1,0.0101,-0.0025,0.0108*
1,1,0.0101,0.0025,0.0108*
1,1,0.0101,0.0025,-0.0108*
%
%ADD53ROUNDEDRECTD53*%
%ADD54R,0.1154X0.1115*%
%ADD55O,0.0150X0.0327*%
%ADD56O,0.0327X0.0150*%
G04:AMPARAMS|DCode=57|XSize=55.2mil|YSize=35.2mil|CornerRadius=10.1mil|HoleSize=0mil|Usage=FLASHONLY|Rotation=90.000|XOffset=0mil|YOffset=0mil|HoleType=Round|Shape=RoundedRectangle|*
%AMROUNDEDRECTD57*
21,1,0.0552,0.0150,0,0,90.0*
21,1,0.0350,0.0352,0,0,90.0*
1,1,0.0202,0.0075,0.0175*
1,1,0.0202,0.0075,-0.0175*
1,1,0.0202,-0.0075,-0.0175*
1,1,0.0202,-0.0075,0.0175*
%
%ADD57ROUNDEDRECTD57*%
%ADD58C,0.0721*%
%ADD59R,0.0721X0.0721*%
%ADD60C,0.0445*%
%ADD61C,0.0308*%
%ADD62O,0.0445X0.0682*%
%ADD63O,0.0445X0.0878*%
D38*
X27923Y15446D02*
D03*
Y13754D02*
D03*
X27077Y15446D02*
D03*
Y13754D02*
D03*
X24523Y15396D02*
D03*
Y13704D02*
D03*
X23677Y15396D02*
D03*
Y13704D02*
D03*
D39*
X16250Y14350D02*
D03*
Y14750D02*
D03*
X27750Y30200D02*
D03*
Y30600D02*
D03*
X27650Y29250D02*
D03*
Y29650D02*
D03*
X26677Y23452D02*
D03*
Y23852D02*
D03*
X26077Y23452D02*
D03*
Y23852D02*
D03*
X26127Y24352D02*
D03*
Y24752D02*
D03*
X28850Y14150D02*
D03*
Y14550D02*
D03*
X26650Y24650D02*
D03*
Y24250D02*
D03*
D40*
X28000Y20433D02*
D03*
Y20767D02*
D03*
X29400Y14485D02*
D03*
Y14150D02*
D03*
X16800Y14717D02*
D03*
Y14383D02*
D03*
X24550Y16050D02*
D03*
Y16385D02*
D03*
D41*
X22155Y21100D02*
D03*
X22470D02*
D03*
X22785D02*
D03*
X23100D02*
D03*
X23415D02*
D03*
X23730D02*
D03*
X24045D02*
D03*
X24360D02*
D03*
X24675D02*
D03*
X24990D02*
D03*
X25305D02*
D03*
X25620D02*
D03*
X25935D02*
D03*
X26250D02*
D03*
D42*
X25915Y17698D02*
D03*
Y18072D02*
D03*
Y18446D02*
D03*
X27055D02*
D03*
Y17698D02*
D03*
D43*
X19700Y21700D02*
D03*
D44*
X19109Y22615D02*
D03*
X19306D02*
D03*
X19503D02*
D03*
X19700D02*
D03*
X19897D02*
D03*
X20094D02*
D03*
X20291D02*
D03*
Y20785D02*
D03*
X20094D02*
D03*
X19897D02*
D03*
X19700D02*
D03*
X19503D02*
D03*
X19306D02*
D03*
X19109D02*
D03*
D45*
X20615Y22291D02*
D03*
Y22094D02*
D03*
Y21897D02*
D03*
Y21700D02*
D03*
Y21503D02*
D03*
Y21306D02*
D03*
Y21109D02*
D03*
X18785D02*
D03*
Y21306D02*
D03*
Y21503D02*
D03*
Y21700D02*
D03*
Y21897D02*
D03*
Y22094D02*
D03*
Y22291D02*
D03*
D46*
X19117Y19950D02*
D03*
X18783D02*
D03*
X20250Y19950D02*
D03*
X19915D02*
D03*
X26550Y29700D02*
D03*
X26885D02*
D03*
X19150Y23250D02*
D03*
X19485D02*
D03*
X20300D02*
D03*
X19965D02*
D03*
X26550Y30500D02*
D03*
X26885D02*
D03*
X19235Y16500D02*
D03*
X18900D02*
D03*
X20415D02*
D03*
X20750D02*
D03*
D47*
X19000Y18157D02*
D03*
X18626Y19043D02*
D03*
X19374D02*
D03*
X20550Y18993D02*
D03*
X20924Y18107D02*
D03*
X20176D02*
D03*
D48*
X28100Y17950D02*
D03*
X27700D02*
D03*
X28050Y18500D02*
D03*
X27650D02*
D03*
X28100Y17450D02*
D03*
X27700D02*
D03*
X26950Y29050D02*
D03*
X26550D02*
D03*
D49*
X22441Y33000D02*
D03*
X24450D02*
D03*
D50*
X21019Y15592D02*
D03*
X20901D02*
D03*
X20704D02*
D03*
X20586D02*
D03*
X20389D02*
D03*
X20192D02*
D03*
X19995D02*
D03*
X19798D02*
D03*
X19602D02*
D03*
X19405D02*
D03*
X19208D02*
D03*
X19011D02*
D03*
X18814D02*
D03*
X18696D02*
D03*
X18499D02*
D03*
X18381D02*
D03*
D51*
X24474Y30161D02*
D03*
D52*
X25798Y29078D02*
D03*
Y29275D02*
D03*
Y29472D02*
D03*
Y29669D02*
D03*
Y29866D02*
D03*
Y30063D02*
D03*
Y30259D02*
D03*
Y30456D02*
D03*
Y30653D02*
D03*
Y30850D02*
D03*
Y31047D02*
D03*
Y31244D02*
D03*
X23150D02*
D03*
Y31047D02*
D03*
Y30850D02*
D03*
Y30653D02*
D03*
Y30456D02*
D03*
Y30259D02*
D03*
Y30063D02*
D03*
Y29866D02*
D03*
Y29669D02*
D03*
Y29472D02*
D03*
Y29275D02*
D03*
Y29078D02*
D03*
D53*
X25556Y31485D02*
D03*
X25360D02*
D03*
X25163D02*
D03*
X24966D02*
D03*
X24769D02*
D03*
X24572D02*
D03*
X24375D02*
D03*
X24179D02*
D03*
X23982D02*
D03*
X23785D02*
D03*
X23588D02*
D03*
X23391D02*
D03*
Y28837D02*
D03*
X23588D02*
D03*
X23785D02*
D03*
X23982D02*
D03*
X24179D02*
D03*
X24375D02*
D03*
X24572D02*
D03*
X24769D02*
D03*
X24966D02*
D03*
X25163D02*
D03*
X25360D02*
D03*
X25556D02*
D03*
D54*
X24450Y24050D02*
D03*
D55*
X23958Y24877D02*
D03*
X24155D02*
D03*
X24352D02*
D03*
X24548D02*
D03*
X24745D02*
D03*
X24942D02*
D03*
Y23223D02*
D03*
X24745D02*
D03*
X24548D02*
D03*
X24352D02*
D03*
X24155D02*
D03*
X23958D02*
D03*
D56*
X25277Y24542D02*
D03*
Y24345D02*
D03*
Y24148D02*
D03*
Y23952D02*
D03*
Y23755D02*
D03*
Y23558D02*
D03*
X23623D02*
D03*
Y23755D02*
D03*
Y23952D02*
D03*
Y24148D02*
D03*
Y24345D02*
D03*
Y24542D02*
D03*
D57*
X29350Y19200D02*
D03*
Y17500D02*
D03*
X29990Y19200D02*
D03*
Y17500D02*
D03*
X29350Y25100D02*
D03*
Y23400D02*
D03*
X29990Y25100D02*
D03*
Y23400D02*
D03*
X29350Y30550D02*
D03*
Y28850D02*
D03*
X29990Y30550D02*
D03*
Y28850D02*
D03*
D58*
X15700Y17000D02*
D03*
Y18000D02*
D03*
Y19000D02*
D03*
Y20000D02*
D03*
Y21000D02*
D03*
Y22000D02*
D03*
Y23000D02*
D03*
Y24000D02*
D03*
Y25000D02*
D03*
Y26000D02*
D03*
Y27000D02*
D03*
Y28000D02*
D03*
Y29000D02*
D03*
Y30000D02*
D03*
Y31000D02*
D03*
Y32000D02*
D03*
Y33000D02*
D03*
X16800Y17000D02*
D03*
Y18000D02*
D03*
Y19000D02*
D03*
Y20000D02*
D03*
Y21000D02*
D03*
Y22000D02*
D03*
Y23000D02*
D03*
Y24000D02*
D03*
Y25000D02*
D03*
Y26000D02*
D03*
Y27000D02*
D03*
Y28000D02*
D03*
Y29000D02*
D03*
Y30000D02*
D03*
Y31000D02*
D03*
Y32000D02*
D03*
Y33000D02*
D03*
D59*
X15700Y34000D02*
D03*
X16800D02*
D03*
D60*
X23150Y32050D02*
D03*
X20000D02*
D03*
D61*
X18562Y14986D02*
D03*
X20838D02*
D03*
D62*
X21403Y13608D02*
D03*
X17997D02*
D03*
D63*
X21403Y15183D02*
D03*
X17997D02*
D03*
M02*
