G04*
G04 #@! TF.GenerationSoftware,Altium Limited,Altium Designer,20.0.13 (296)*
G04*
G04 Layer_Color=255*
%FSLAX24Y24*%
%MOIN*%
G70*
G01*
G75*
%ADD18R,0.0276X0.0394*%
G04:AMPARAMS|DCode=19|XSize=20mil|YSize=20mil|CornerRadius=5mil|HoleSize=0mil|Usage=FLASHONLY|Rotation=180.000|XOffset=0mil|YOffset=0mil|HoleType=Round|Shape=RoundedRectangle|*
%AMROUNDEDRECTD19*
21,1,0.0200,0.0100,0,0,180.0*
21,1,0.0100,0.0200,0,0,180.0*
1,1,0.0100,-0.0050,0.0050*
1,1,0.0100,0.0050,0.0050*
1,1,0.0100,0.0050,-0.0050*
1,1,0.0100,-0.0050,-0.0050*
%
%ADD19ROUNDEDRECTD19*%
%ADD20R,0.0197X0.0157*%
%ADD21R,0.0157X0.1575*%
G04:AMPARAMS|DCode=22|XSize=23.6mil|YSize=35mil|CornerRadius=5.9mil|HoleSize=0mil|Usage=FLASHONLY|Rotation=90.000|XOffset=0mil|YOffset=0mil|HoleType=Round|Shape=RoundedRectangle|*
%AMROUNDEDRECTD22*
21,1,0.0236,0.0232,0,0,90.0*
21,1,0.0118,0.0350,0,0,90.0*
1,1,0.0118,0.0116,0.0059*
1,1,0.0118,0.0116,-0.0059*
1,1,0.0118,-0.0116,-0.0059*
1,1,0.0118,-0.0116,0.0059*
%
%ADD22ROUNDEDRECTD22*%
%ADD23R,0.1063X0.1102*%
G04:AMPARAMS|DCode=24|XSize=12mil|YSize=38mil|CornerRadius=3mil|HoleSize=0mil|Usage=FLASHONLY|Rotation=180.000|XOffset=0mil|YOffset=0mil|HoleType=Round|Shape=RoundedRectangle|*
%AMROUNDEDRECTD24*
21,1,0.0120,0.0320,0,0,180.0*
21,1,0.0060,0.0380,0,0,180.0*
1,1,0.0060,-0.0030,0.0160*
1,1,0.0060,0.0030,0.0160*
1,1,0.0060,0.0030,-0.0160*
1,1,0.0060,-0.0030,-0.0160*
%
%ADD24ROUNDEDRECTD24*%
G04:AMPARAMS|DCode=25|XSize=12mil|YSize=38mil|CornerRadius=3mil|HoleSize=0mil|Usage=FLASHONLY|Rotation=270.000|XOffset=0mil|YOffset=0mil|HoleType=Round|Shape=RoundedRectangle|*
%AMROUNDEDRECTD25*
21,1,0.0120,0.0320,0,0,270.0*
21,1,0.0060,0.0380,0,0,270.0*
1,1,0.0060,-0.0160,-0.0030*
1,1,0.0060,-0.0160,0.0030*
1,1,0.0060,0.0160,0.0030*
1,1,0.0060,0.0160,-0.0030*
%
%ADD25ROUNDEDRECTD25*%
%ADD26R,0.0157X0.0197*%
G04:AMPARAMS|DCode=27|XSize=37.4mil|YSize=39.4mil|CornerRadius=9.4mil|HoleSize=0mil|Usage=FLASHONLY|Rotation=180.000|XOffset=0mil|YOffset=0mil|HoleType=Round|Shape=RoundedRectangle|*
%AMROUNDEDRECTD27*
21,1,0.0374,0.0207,0,0,180.0*
21,1,0.0187,0.0394,0,0,180.0*
1,1,0.0187,-0.0094,0.0103*
1,1,0.0187,0.0094,0.0103*
1,1,0.0187,0.0094,-0.0103*
1,1,0.0187,-0.0094,-0.0103*
%
%ADD27ROUNDEDRECTD27*%
G04:AMPARAMS|DCode=28|XSize=20mil|YSize=20mil|CornerRadius=5mil|HoleSize=0mil|Usage=FLASHONLY|Rotation=270.000|XOffset=0mil|YOffset=0mil|HoleType=Round|Shape=RoundedRectangle|*
%AMROUNDEDRECTD28*
21,1,0.0200,0.0100,0,0,270.0*
21,1,0.0100,0.0200,0,0,270.0*
1,1,0.0100,-0.0050,-0.0050*
1,1,0.0100,-0.0050,0.0050*
1,1,0.0100,0.0050,0.0050*
1,1,0.0100,0.0050,-0.0050*
%
%ADD28ROUNDEDRECTD28*%
G04:AMPARAMS|DCode=29|XSize=31.5mil|YSize=70.9mil|CornerRadius=7.9mil|HoleSize=0mil|Usage=FLASHONLY|Rotation=180.000|XOffset=0mil|YOffset=0mil|HoleType=Round|Shape=RoundedRectangle|*
%AMROUNDEDRECTD29*
21,1,0.0315,0.0551,0,0,180.0*
21,1,0.0157,0.0709,0,0,180.0*
1,1,0.0157,-0.0079,0.0276*
1,1,0.0157,0.0079,0.0276*
1,1,0.0157,0.0079,-0.0276*
1,1,0.0157,-0.0079,-0.0276*
%
%ADD29ROUNDEDRECTD29*%
G04:AMPARAMS|DCode=30|XSize=59.1mil|YSize=11.8mil|CornerRadius=3mil|HoleSize=0mil|Usage=FLASHONLY|Rotation=90.000|XOffset=0mil|YOffset=0mil|HoleType=Round|Shape=RoundedRectangle|*
%AMROUNDEDRECTD30*
21,1,0.0591,0.0059,0,0,90.0*
21,1,0.0531,0.0118,0,0,90.0*
1,1,0.0059,0.0030,0.0266*
1,1,0.0059,0.0030,-0.0266*
1,1,0.0059,-0.0030,-0.0266*
1,1,0.0059,-0.0030,0.0266*
%
%ADD30ROUNDEDRECTD30*%
G04:AMPARAMS|DCode=31|XSize=160mil|YSize=160mil|CornerRadius=16mil|HoleSize=0mil|Usage=FLASHONLY|Rotation=180.000|XOffset=0mil|YOffset=0mil|HoleType=Round|Shape=RoundedRectangle|*
%AMROUNDEDRECTD31*
21,1,0.1600,0.1280,0,0,180.0*
21,1,0.1280,0.1600,0,0,180.0*
1,1,0.0320,-0.0640,0.0640*
1,1,0.0320,0.0640,0.0640*
1,1,0.0320,0.0640,-0.0640*
1,1,0.0320,-0.0640,-0.0640*
%
%ADD31ROUNDEDRECTD31*%
G04:AMPARAMS|DCode=32|XSize=26.6mil|YSize=9.8mil|CornerRadius=2.5mil|HoleSize=0mil|Usage=FLASHONLY|Rotation=180.000|XOffset=0mil|YOffset=0mil|HoleType=Round|Shape=RoundedRectangle|*
%AMROUNDEDRECTD32*
21,1,0.0266,0.0049,0,0,180.0*
21,1,0.0217,0.0098,0,0,180.0*
1,1,0.0049,-0.0108,0.0025*
1,1,0.0049,0.0108,0.0025*
1,1,0.0049,0.0108,-0.0025*
1,1,0.0049,-0.0108,-0.0025*
%
%ADD32ROUNDEDRECTD32*%
G04:AMPARAMS|DCode=33|XSize=26.6mil|YSize=9.8mil|CornerRadius=2.5mil|HoleSize=0mil|Usage=FLASHONLY|Rotation=270.000|XOffset=0mil|YOffset=0mil|HoleType=Round|Shape=RoundedRectangle|*
%AMROUNDEDRECTD33*
21,1,0.0266,0.0049,0,0,270.0*
21,1,0.0217,0.0098,0,0,270.0*
1,1,0.0049,-0.0025,-0.0108*
1,1,0.0049,-0.0025,0.0108*
1,1,0.0049,0.0025,0.0108*
1,1,0.0049,0.0025,-0.0108*
%
%ADD33ROUNDEDRECTD33*%
%ADD34R,0.1102X0.1063*%
%ADD35O,0.0098X0.0276*%
%ADD36O,0.0276X0.0098*%
G04:AMPARAMS|DCode=37|XSize=50mil|YSize=30mil|CornerRadius=7.5mil|HoleSize=0mil|Usage=FLASHONLY|Rotation=90.000|XOffset=0mil|YOffset=0mil|HoleType=Round|Shape=RoundedRectangle|*
%AMROUNDEDRECTD37*
21,1,0.0500,0.0150,0,0,90.0*
21,1,0.0350,0.0300,0,0,90.0*
1,1,0.0150,0.0075,0.0175*
1,1,0.0150,0.0075,-0.0175*
1,1,0.0150,-0.0075,-0.0175*
1,1,0.0150,-0.0075,0.0175*
%
%ADD37ROUNDEDRECTD37*%
%ADD65C,0.0669*%
%ADD66R,0.0669X0.0669*%
%ADD67C,0.0394*%
%ADD68C,0.0256*%
%ADD69O,0.0394X0.0630*%
%ADD70O,0.0394X0.0827*%
D18*
X27923Y15446D02*
D03*
Y13754D02*
D03*
X27077Y15446D02*
D03*
Y13754D02*
D03*
X24523Y15396D02*
D03*
Y13704D02*
D03*
X23677Y15396D02*
D03*
Y13704D02*
D03*
D19*
X16250Y14350D02*
D03*
Y14750D02*
D03*
X27750Y30200D02*
D03*
Y30600D02*
D03*
X27650Y29250D02*
D03*
Y29650D02*
D03*
X26677Y23452D02*
D03*
Y23852D02*
D03*
X26077Y23452D02*
D03*
Y23852D02*
D03*
X26127Y24352D02*
D03*
Y24752D02*
D03*
X28850Y14150D02*
D03*
Y14550D02*
D03*
X26650Y24650D02*
D03*
Y24250D02*
D03*
D20*
X28000Y20433D02*
D03*
Y20767D02*
D03*
X29400Y14485D02*
D03*
Y14150D02*
D03*
X16800Y14717D02*
D03*
Y14383D02*
D03*
X24550Y16050D02*
D03*
Y16385D02*
D03*
D21*
X22155Y21100D02*
D03*
X22470D02*
D03*
X22785D02*
D03*
X23100D02*
D03*
X23415D02*
D03*
X23730D02*
D03*
X24045D02*
D03*
X24360D02*
D03*
X24675D02*
D03*
X24990D02*
D03*
X25305D02*
D03*
X25620D02*
D03*
X25935D02*
D03*
X26250D02*
D03*
D22*
X25915Y17698D02*
D03*
Y18072D02*
D03*
Y18446D02*
D03*
X27055D02*
D03*
Y17698D02*
D03*
D23*
X19700Y21700D02*
D03*
D24*
X19109Y22615D02*
D03*
X19306D02*
D03*
X19503D02*
D03*
X19700D02*
D03*
X19897D02*
D03*
X20094D02*
D03*
X20291D02*
D03*
Y20785D02*
D03*
X20094D02*
D03*
X19897D02*
D03*
X19700D02*
D03*
X19503D02*
D03*
X19306D02*
D03*
X19109D02*
D03*
D25*
X20615Y22291D02*
D03*
Y22094D02*
D03*
Y21897D02*
D03*
Y21700D02*
D03*
Y21503D02*
D03*
Y21306D02*
D03*
Y21109D02*
D03*
X18785D02*
D03*
Y21306D02*
D03*
Y21503D02*
D03*
Y21700D02*
D03*
Y21897D02*
D03*
Y22094D02*
D03*
Y22291D02*
D03*
D26*
X19117Y19950D02*
D03*
X18783D02*
D03*
X20250Y19950D02*
D03*
X19915D02*
D03*
X26550Y29700D02*
D03*
X26885D02*
D03*
X19150Y23250D02*
D03*
X19485D02*
D03*
X20300D02*
D03*
X19965D02*
D03*
X26550Y30500D02*
D03*
X26885D02*
D03*
X19235Y16500D02*
D03*
X18900D02*
D03*
X20415D02*
D03*
X20750D02*
D03*
D27*
X19000Y18157D02*
D03*
X18626Y19043D02*
D03*
X19374D02*
D03*
X20550Y18993D02*
D03*
X20924Y18107D02*
D03*
X20176D02*
D03*
D28*
X28100Y17950D02*
D03*
X27700D02*
D03*
X28050Y18500D02*
D03*
X27650D02*
D03*
X28100Y17450D02*
D03*
X27700D02*
D03*
X26950Y29050D02*
D03*
X26550D02*
D03*
D29*
X22441Y33000D02*
D03*
X24450D02*
D03*
D30*
X21019Y15592D02*
D03*
X20901D02*
D03*
X20704D02*
D03*
X20586D02*
D03*
X20389D02*
D03*
X20192D02*
D03*
X19995D02*
D03*
X19798D02*
D03*
X19602D02*
D03*
X19405D02*
D03*
X19208D02*
D03*
X19011D02*
D03*
X18814D02*
D03*
X18696D02*
D03*
X18499D02*
D03*
X18381D02*
D03*
D31*
X24474Y30161D02*
D03*
D32*
X25798Y29078D02*
D03*
Y29275D02*
D03*
Y29472D02*
D03*
Y29669D02*
D03*
Y29866D02*
D03*
Y30063D02*
D03*
Y30259D02*
D03*
Y30456D02*
D03*
Y30653D02*
D03*
Y30850D02*
D03*
Y31047D02*
D03*
Y31244D02*
D03*
X23150D02*
D03*
Y31047D02*
D03*
Y30850D02*
D03*
Y30653D02*
D03*
Y30456D02*
D03*
Y30259D02*
D03*
Y30063D02*
D03*
Y29866D02*
D03*
Y29669D02*
D03*
Y29472D02*
D03*
Y29275D02*
D03*
Y29078D02*
D03*
D33*
X25556Y31485D02*
D03*
X25360D02*
D03*
X25163D02*
D03*
X24966D02*
D03*
X24769D02*
D03*
X24572D02*
D03*
X24375D02*
D03*
X24179D02*
D03*
X23982D02*
D03*
X23785D02*
D03*
X23588D02*
D03*
X23391D02*
D03*
Y28837D02*
D03*
X23588D02*
D03*
X23785D02*
D03*
X23982D02*
D03*
X24179D02*
D03*
X24375D02*
D03*
X24572D02*
D03*
X24769D02*
D03*
X24966D02*
D03*
X25163D02*
D03*
X25360D02*
D03*
X25556D02*
D03*
D34*
X24450Y24050D02*
D03*
D35*
X23958Y24877D02*
D03*
X24155D02*
D03*
X24352D02*
D03*
X24548D02*
D03*
X24745D02*
D03*
X24942D02*
D03*
Y23223D02*
D03*
X24745D02*
D03*
X24548D02*
D03*
X24352D02*
D03*
X24155D02*
D03*
X23958D02*
D03*
D36*
X25277Y24542D02*
D03*
Y24345D02*
D03*
Y24148D02*
D03*
Y23952D02*
D03*
Y23755D02*
D03*
Y23558D02*
D03*
X23623D02*
D03*
Y23755D02*
D03*
Y23952D02*
D03*
Y24148D02*
D03*
Y24345D02*
D03*
Y24542D02*
D03*
D37*
X29350Y19200D02*
D03*
Y17500D02*
D03*
X29990Y19200D02*
D03*
Y17500D02*
D03*
X29350Y25100D02*
D03*
Y23400D02*
D03*
X29990Y25100D02*
D03*
Y23400D02*
D03*
X29350Y30550D02*
D03*
Y28850D02*
D03*
X29990Y30550D02*
D03*
Y28850D02*
D03*
D65*
X15700Y17000D02*
D03*
Y18000D02*
D03*
Y19000D02*
D03*
Y20000D02*
D03*
Y21000D02*
D03*
Y22000D02*
D03*
Y23000D02*
D03*
Y24000D02*
D03*
Y25000D02*
D03*
Y26000D02*
D03*
Y27000D02*
D03*
Y28000D02*
D03*
Y29000D02*
D03*
Y30000D02*
D03*
Y31000D02*
D03*
Y32000D02*
D03*
Y33000D02*
D03*
X16800Y17000D02*
D03*
Y18000D02*
D03*
Y19000D02*
D03*
Y20000D02*
D03*
Y21000D02*
D03*
Y22000D02*
D03*
Y23000D02*
D03*
Y24000D02*
D03*
Y25000D02*
D03*
Y26000D02*
D03*
Y27000D02*
D03*
Y28000D02*
D03*
Y29000D02*
D03*
Y30000D02*
D03*
Y31000D02*
D03*
Y32000D02*
D03*
Y33000D02*
D03*
D66*
X15700Y34000D02*
D03*
X16800D02*
D03*
D67*
X23150Y32050D02*
D03*
X20000D02*
D03*
D68*
X18562Y14986D02*
D03*
X20838D02*
D03*
D69*
X21403Y13608D02*
D03*
X17997D02*
D03*
D70*
X21403Y15183D02*
D03*
X17997D02*
D03*
M02*
