G04*
G04 #@! TF.GenerationSoftware,Altium Limited,Altium Designer,20.0.13 (296)*
G04*
G04 Layer_Color=16711935*
%FSLAX24Y24*%
%MOIN*%
G70*
G01*
G75*
G04:AMPARAMS|DCode=39|XSize=25.2mil|YSize=25.2mil|CornerRadius=7.6mil|HoleSize=0mil|Usage=FLASHONLY|Rotation=180.000|XOffset=0mil|YOffset=0mil|HoleType=Round|Shape=RoundedRectangle|*
%AMROUNDEDRECTD39*
21,1,0.0252,0.0100,0,0,180.0*
21,1,0.0100,0.0252,0,0,180.0*
1,1,0.0152,-0.0050,0.0050*
1,1,0.0152,0.0050,0.0050*
1,1,0.0152,0.0050,-0.0050*
1,1,0.0152,-0.0050,-0.0050*
%
%ADD39ROUNDEDRECTD39*%
%ADD40R,0.0248X0.0209*%
%ADD58C,0.0721*%
%ADD59R,0.0721X0.0721*%
%ADD60C,0.0445*%
%ADD61C,0.0308*%
%ADD62O,0.0445X0.0682*%
%ADD63O,0.0445X0.0878*%
G04:AMPARAMS|DCode=78|XSize=125.2mil|YSize=65.2mil|CornerRadius=17.6mil|HoleSize=0mil|Usage=FLASHONLY|Rotation=90.000|XOffset=0mil|YOffset=0mil|HoleType=Round|Shape=RoundedRectangle|*
%AMROUNDEDRECTD78*
21,1,0.1252,0.0300,0,0,90.0*
21,1,0.0900,0.0652,0,0,90.0*
1,1,0.0352,0.0150,0.0450*
1,1,0.0352,0.0150,-0.0450*
1,1,0.0352,-0.0150,-0.0450*
1,1,0.0352,-0.0150,0.0450*
%
%ADD78ROUNDEDRECTD78*%
%ADD79R,0.0248X0.0248*%
%ADD80R,0.0852X0.0918*%
%ADD81R,0.0682X0.0603*%
%ADD82R,0.0524X0.0603*%
%ADD83R,0.0327X0.0760*%
D39*
X20300Y26550D02*
D03*
Y26950D02*
D03*
D40*
X21750Y26600D02*
D03*
Y26935D02*
D03*
X22600Y26600D02*
D03*
Y26935D02*
D03*
X21000Y26600D02*
D03*
Y26935D02*
D03*
X23350Y26600D02*
D03*
Y26935D02*
D03*
D58*
X15700Y17000D02*
D03*
Y18000D02*
D03*
Y19000D02*
D03*
Y20000D02*
D03*
Y21000D02*
D03*
Y22000D02*
D03*
Y23000D02*
D03*
Y24000D02*
D03*
Y25000D02*
D03*
Y26000D02*
D03*
Y27000D02*
D03*
Y28000D02*
D03*
Y29000D02*
D03*
Y30000D02*
D03*
Y31000D02*
D03*
Y32000D02*
D03*
Y33000D02*
D03*
X16800Y17000D02*
D03*
Y18000D02*
D03*
Y19000D02*
D03*
Y20000D02*
D03*
Y21000D02*
D03*
Y22000D02*
D03*
Y23000D02*
D03*
Y24000D02*
D03*
Y25000D02*
D03*
Y26000D02*
D03*
Y27000D02*
D03*
Y28000D02*
D03*
Y29000D02*
D03*
Y30000D02*
D03*
Y31000D02*
D03*
Y32000D02*
D03*
Y33000D02*
D03*
D59*
X15700Y34000D02*
D03*
X16800D02*
D03*
D60*
X23150Y32050D02*
D03*
X20000D02*
D03*
D61*
X18562Y14986D02*
D03*
X20838D02*
D03*
D62*
X21403Y13608D02*
D03*
X17997D02*
D03*
D63*
X21403Y15183D02*
D03*
X17997D02*
D03*
D78*
X22250Y19700D02*
D03*
X23250D02*
D03*
X24250D02*
D03*
X25250D02*
D03*
Y25400D02*
D03*
X24250D02*
D03*
X23250D02*
D03*
X22250D02*
D03*
D79*
X27850Y19730D02*
D03*
Y20070D02*
D03*
X28550Y19710D02*
D03*
Y20050D02*
D03*
X27900Y21900D02*
D03*
Y21560D02*
D03*
X28650Y21890D02*
D03*
Y21550D02*
D03*
D80*
X24961Y31893D02*
D03*
X18858D02*
D03*
D81*
X24646Y28113D02*
D03*
D82*
X18858D02*
D03*
D83*
X22835Y27866D02*
D03*
X22402D02*
D03*
X21969D02*
D03*
X21535D02*
D03*
X21102D02*
D03*
X20236D02*
D03*
X19803D02*
D03*
X19370D02*
D03*
X20669D02*
D03*
M02*
